<svg width="113" height="22" viewBox="0 0 113 22" fill="none" xmlns="http://www.w3.org/2000/svg">
<g clip-path="url(#clip0_26_334)">
<path d="M108.593 7.70374C108.082 7.70268 107.577 7.60225 107.106 7.40826C106.635 7.21426 106.208 6.93053 105.85 6.57349C104.338 5.06649 104.338 2.61807 105.85 1.13032C106.208 0.772369 106.635 0.488047 107.106 0.293959C107.577 0.0998713 108.082 -9.15527e-05 108.593 -9.15527e-05C109.104 -9.15527e-05 109.61 0.0998713 110.081 0.293959C110.552 0.488047 110.979 0.772369 111.337 1.13032C112.849 2.63732 112.849 5.08574 111.337 6.57349C110.978 6.93064 110.551 7.21443 110.08 7.40843C109.609 7.60243 109.103 7.7028 108.593 7.70374ZM108.593 2.46774C108.238 2.46774 107.884 2.59974 107.604 2.86282C107.344 3.12478 107.198 3.47628 107.198 3.84228C107.198 4.20828 107.344 4.55978 107.604 4.82174C107.731 4.95125 107.883 5.05427 108.052 5.12465C108.22 5.19503 108.401 5.2313 108.584 5.2313C108.767 5.2313 108.948 5.19503 109.116 5.12465C109.284 5.05427 109.437 4.95125 109.563 4.82174C109.824 4.55978 109.969 4.20828 109.969 3.84228C109.969 3.47628 109.824 3.12478 109.563 2.86282C109.302 2.61522 108.956 2.47404 108.593 2.46774Z" fill="white"/>
<path d="M98.0852 18.7981C95.5839 18.7981 93.5492 16.7823 93.5492 14.2972C93.5492 11.8103 95.5839 9.79456 98.0852 9.79456C100.587 9.79456 102.62 11.8103 102.62 14.2963C102.602 16.7823 100.587 18.7981 98.0852 18.7981ZM98.0852 6.57431C93.7919 6.57431 90.3199 10.021 90.3199 14.278C90.3199 18.5341 93.7919 21.9816 98.0852 21.9816C102.378 21.9816 105.85 18.535 105.85 14.278C105.85 10.0393 102.359 6.57431 98.0852 6.57431ZM23.5586 18.3654C23.0172 17.8942 22.8306 17.1783 22.8306 16.5V9.66256H25.8172V6.76222H22.8306V3.16431H19.6386V6.76222H17.7532V9.66256H19.6386V16.5009C19.6386 19.8907 21.7292 21.9816 25.1639 21.9816C25.3879 21.9816 25.6492 21.9816 25.8546 21.9633L25.7986 18.9108C25.1079 18.9291 24.1372 18.8549 23.5586 18.3654ZM34.9434 18.7981C32.442 18.7981 30.4083 16.7823 30.4083 14.2972C30.4083 11.8103 32.443 9.79456 34.9443 9.79456C37.4447 9.79456 39.4794 11.8103 39.4794 14.2963C39.4794 16.7823 37.4447 18.7981 34.9434 18.7981ZM34.9434 6.57431C30.65 6.57431 27.179 10.021 27.179 14.278C27.179 18.5341 30.651 21.9816 34.9443 21.9816C39.2367 21.9816 42.7078 18.535 42.7078 14.278C42.7078 10.0393 39.2358 6.57431 34.9434 6.57431ZM82.3334 18.7981C79.832 18.7981 77.7974 16.7823 77.7974 14.2972C77.7974 11.8103 79.832 9.79456 82.3334 9.79456C83.9947 9.79456 85.4507 10.6801 86.2347 12.0175L89.016 10.3977C88.3375 9.24156 87.3609 8.28129 86.1845 7.61349C85.0081 6.94569 83.6735 6.59392 82.3147 6.59356C78.0214 6.59356 74.5503 10.0402 74.5503 14.2963C74.5503 18.5533 78.0223 22 82.3147 22C85.1894 22 87.6907 20.4554 89.0347 18.1573L86.2347 16.5376C85.8493 17.2222 85.2841 17.793 84.598 18.1905C83.9119 18.588 83.13 18.7978 82.3334 18.7981ZM60.1966 6.49914C58.4232 6.49914 56.7806 7.19581 55.5486 8.43972C54.2792 7.13989 52.8046 6.49914 51.0882 6.49914H51.0695C49.6322 6.49914 48.3068 7.30947 47.7282 7.96856V6.78147H44.6118V21.9065H47.8784V12.5821C47.9344 10.7745 49.0544 9.70014 50.9024 9.70014C52.5068 9.70014 53.9255 11.132 53.9255 12.7526V21.9065H57.1922V12.5262C57.1922 11.0192 58.6108 9.70106 60.2339 9.70106C61.8392 9.70106 63.2579 11.132 63.2579 12.7517V21.9065H66.5246V12.5638C66.5059 8.98514 63.9112 6.49822 60.1966 6.49822V6.49914ZM69.137 21.813H72.3103V6.78147H69.137V21.8121V21.813ZM8.2351 18.7981C5.73377 18.7981 3.6991 16.7823 3.6991 14.2972C3.6991 11.8103 5.73377 9.79456 8.2351 9.79456C10.7364 9.79456 12.7711 11.8103 12.7711 14.2963C12.7711 16.7823 10.7364 18.7981 8.2351 18.7981ZM12.6031 8.13722C11.4084 7.21414 9.8591 6.57431 8.2351 6.57431C3.94177 6.57431 0.470703 10.021 0.470703 14.278C0.470703 18.5341 3.9427 21.9816 8.2351 21.9816C9.8591 21.9816 11.4644 21.3216 12.6031 20.4178V21.7928H15.7755V6.78147H12.6022V8.13722H12.6031Z" fill="white"/>
</g>
<defs>
<clipPath id="clip0_26_334">
<rect width="112" height="22" fill="white" transform="translate(0.470703)"/>
</clipPath>
</defs>
</svg>
