<svg width="127" height="23" viewBox="0 0 127 23" fill="none" xmlns="http://www.w3.org/2000/svg">
<path d="M25.632 6.43552C20.9917 6.43552 17.401 9.96107 17.401 14.7178C17.401 19.4745 20.9365 23 25.632 23C30.3275 23 33.9182 19.4185 33.9182 14.7178C33.9182 10.017 30.3828 6.43552 25.632 6.43552ZM25.6873 19.5304C23.0357 19.5304 21.1575 17.4599 21.1575 14.6618C21.1575 11.8637 23.0357 9.79319 25.6873 9.79319C28.3388 9.79319 30.2723 11.8637 30.2723 14.6618C30.2723 17.4599 28.2836 19.5304 25.6873 19.5304ZM34.9126 10.017H37.1775V22.6642H40.8786V6.71533H34.9126V10.017ZM8.17573 9.84915C10.1092 9.84915 11.6559 11.0243 12.2084 12.8151H16.0753C15.3571 9.00973 12.2636 6.37956 8.17573 6.37956C3.59069 6.43552 0 9.96107 0 14.7178C0 19.4745 3.53545 23 8.23097 23C12.2084 23 15.3571 20.4258 16.0753 16.5645H12.2084C11.6559 18.3552 10.1092 19.5864 8.23097 19.5864C5.57938 19.5864 3.70117 17.5158 3.70117 14.7178C3.70117 11.9197 5.52414 9.84915 8.17573 9.84915ZM104.572 13.1509L101.865 12.7591C100.595 12.5912 99.6555 12.1436 99.6555 11.1363C99.6555 10.017 100.871 9.45742 102.473 9.45742C104.241 9.45742 105.401 10.2409 105.622 11.472H109.157C108.77 8.28224 106.34 6.37956 102.583 6.37956C98.7164 6.37956 96.1201 8.39416 96.1201 11.2482C96.1201 13.9343 97.7773 15.5572 101.202 16.0049L103.909 16.3966C105.235 16.5645 105.953 17.1241 105.953 18.0754C105.953 19.3625 104.682 19.8662 102.915 19.8662C100.76 19.8662 99.545 18.9708 99.3241 17.6277H95.7334C96.0648 20.7616 98.4954 22.944 102.86 22.944C106.837 22.944 109.544 21.0973 109.544 17.9075C109.544 15.1095 107.61 13.6545 104.572 13.1509ZM39.0557 0.167883C37.7299 0.167883 36.6803 1.17518 36.6803 2.51825C36.6803 3.86131 37.6746 4.86861 39.0557 4.86861C40.3815 4.86861 41.4311 3.86131 41.4311 2.51825C41.4311 1.17518 40.3815 0.167883 39.0557 0.167883ZM92.8608 12.1995C92.8608 8.72993 90.7616 6.43552 86.3976 6.43552C82.2545 6.43552 79.9343 8.56204 79.4371 11.8078H83.0831C83.2488 10.5207 84.2432 9.51338 86.3423 9.51338C88.2205 9.51338 89.1044 10.3528 89.1044 11.3601C89.1044 12.7032 87.4472 13.0389 85.348 13.2628C82.5307 13.5985 79.0505 14.5499 79.0505 18.2433C79.0505 21.0973 81.1496 22.944 84.5194 22.944C87.171 22.944 88.7729 21.8248 89.6016 20.09C89.7121 21.6569 90.8721 22.6642 92.5294 22.6642H94.6838V19.3625H92.8608V12.1995ZM89.2149 16.1728C89.2149 18.2993 87.3919 19.8662 85.127 19.8662C83.746 19.8662 82.5859 19.3066 82.5859 18.0195C82.5859 16.4526 84.4641 16.0049 86.1766 15.837C87.8338 15.6691 88.7177 15.3333 89.2149 14.6058V16.1728ZM69.7699 6.43552C67.726 6.43552 66.0135 7.27494 64.7982 8.72993V0H61.1522V22.6642H64.7429V20.5937C65.9582 22.1046 67.726 23 69.7699 23C74.1892 23 77.5037 19.4745 77.5037 14.7178C77.5037 9.96107 74.134 6.43552 69.7699 6.43552ZM69.2175 19.5304C66.5659 19.5304 64.6877 17.4599 64.6877 14.6618C64.6877 11.8637 66.6211 9.79319 69.2727 9.79319C71.9243 9.79319 73.8025 11.8637 73.8025 14.6618C73.8025 17.5158 71.8691 19.5304 69.2175 19.5304ZM52.3689 6.43552C49.9935 6.43552 48.4467 7.44282 47.5076 8.78589V6.71533H43.8617V22.6642H47.5076V13.9903C47.5076 11.528 49.0544 9.84915 51.3193 9.84915C53.4184 9.84915 54.7442 11.3601 54.7442 13.5426V22.6642H58.3902V13.2628C58.3902 9.23358 56.3462 6.43552 52.3689 6.43552ZM127 14.2141C127 9.6253 123.686 6.43552 119.266 6.43552C114.571 6.43552 111.09 10.017 111.09 14.7178C111.09 19.6983 114.792 23 119.321 23C123.133 23 126.116 20.7056 126.89 17.4599H123.078C122.525 18.8589 121.2 19.6983 119.377 19.6983C117.001 19.6983 115.234 18.2433 114.847 15.6131H127V14.2141ZM115.068 12.983C115.676 10.7445 117.278 9.68126 119.211 9.68126C121.31 9.68126 122.857 10.8564 123.244 12.983H115.068Z" fill="white"/>
</svg>
