<svg width="116" height="32" viewBox="0 0 116 32" fill="none" xmlns="http://www.w3.org/2000/svg">
<path fill-rule="evenodd" clip-rule="evenodd" d="M28.4389 4.28467C28.6448 4.55672 28.7135 4.82878 28.7135 5.1688C28.7135 6.66505 28.6448 8.1613 28.4389 9.65753C28.4389 9.79355 28.3702 9.99758 28.3015 10.2016L14.2881 6.257L0.343463 10.2016C0.343463 9.99758 0.274771 9.86155 0.274771 9.65753C0.0686929 8.1613 0 6.66505 0 5.1688C0 4.82878 0.0686929 4.55672 0.274771 4.28467C0.480849 4.01264 0.755622 3.87661 1.09908 3.74058C2.61033 3.33253 14.2881 0 14.3568 0C14.4255 0 26.172 3.33253 27.6145 3.74058C27.9579 3.80861 28.2328 3.94461 28.4389 4.28467ZM0.686929 12.1059C1.09908 14.0782 1.71732 15.9825 2.54164 17.8868L14.3568 14.5543L26.172 17.8868C26.9963 15.9825 27.6145 14.0782 28.0267 12.1059L14.3568 8.2293L0.686929 12.1059ZM3.43463 19.6551C3.50334 19.7911 3.50334 19.8591 3.57202 19.9272C4.46503 21.5594 5.49542 23.1237 6.73189 24.5519C7.00668 24.8919 7.00668 24.8919 7.00668 24.8919L14.4255 22.8516L21.8443 24.8919C21.8443 24.8919 21.8443 24.8919 22.1191 24.5519C23.2868 23.1237 24.386 21.5594 25.279 19.9272C25.3476 19.8591 25.3476 19.7231 25.4163 19.6551L14.4942 16.5266L3.43463 19.6551ZM102.146 14.6223H94.7275V11.1538H101.253V9.11344H94.7275V5.78092H102.077V3.74058H92.4606V16.5946H102.146V14.6223ZM107.092 16.6626H104.825V3.80861H110.595C113.549 3.80861 115.404 5.37286 115.404 7.88925C115.404 9.99758 114.099 11.2898 112.313 11.7659L115.816 16.5946H113.137L109.977 12.1059H107.161V16.6626H107.092ZM107.092 10.2016H110.389C112.038 10.2016 113.068 9.38547 113.068 8.02528C113.068 6.59705 112.038 5.84892 110.389 5.84892H107.092V10.2016ZM66.6321 16.6626H64.2965L69.9981 3.74058H72.1275L77.8291 16.6626H75.4248L74.1196 13.5341H68.0058L66.6321 16.6626ZM68.8303 11.5618H73.2953L71.0284 6.393L68.8303 11.5618ZM8.38051 26.4562C8.44922 26.5922 8.51791 26.6602 8.58659 26.7282C8.79269 26.9323 8.93005 27.0683 9.13615 27.2723C10.51 28.5644 12.0212 29.7206 13.6699 30.7408C13.8759 30.8768 14.1507 30.9449 14.3568 30.9449C14.5629 30.9449 14.8377 30.8768 15.0437 30.7408C16.6923 29.7206 18.2036 28.6325 19.5775 27.2723C19.7835 27.0683 19.9209 26.9323 20.127 26.7282C20.1957 26.6602 20.2644 26.5922 20.3331 26.4562C20.3331 26.4562 14.4942 24.8239 14.3568 24.8239C14.2194 24.7559 8.38051 26.4562 8.38051 26.4562ZM42.4521 16.6626H37.6435V3.80861H42.4521C46.5052 3.80861 49.3214 6.59705 49.3214 10.2016C49.3214 13.8062 46.5052 16.6626 42.4521 16.6626ZM39.8417 14.6223H42.3834C45.1312 14.6223 46.8484 12.786 46.8484 10.2696C46.8484 7.75322 45.0625 5.91694 42.3834 5.91694H39.8417V14.6223ZM89.1634 21.4914L93.0787 29.9927H92.0484L91.018 27.7484H86.3468L85.3165 29.9927H84.3548L88.2702 21.4914H89.1634ZM90.6745 26.9323L88.7511 22.5796L86.8278 26.9323H90.6745ZM81.6757 29.9927H82.6373V21.5594H81.6757V29.9927ZM93.0787 22.4436H95.9637V30.0608H96.9257V22.4436H99.8106V21.5594H93.0787V22.4436ZM41.2156 21.4914L45.1312 29.9927H44.1009L43.0705 27.7484H38.3993L37.369 29.9927H36.4073L40.3227 21.4914H41.2156ZM42.6582 26.9323L40.7349 22.5796L38.8113 26.9323H42.6582ZM82.3628 16.6626H80.0959V3.80861H85.1791C88.2015 3.80861 90.1251 5.50886 90.1251 8.09328C90.1251 11.0177 87.7895 12.514 84.9729 12.514H82.4315V16.6626H82.3628ZM82.3628 10.4737H85.0416C86.7591 10.4737 87.8582 9.5215 87.8582 8.1613C87.8582 6.66505 86.7591 5.84892 85.0416 5.84892H82.3628V10.4737ZM102.558 26.1841H107.229V25.3H102.558V22.3756H107.779V21.4914H101.597V29.9927H107.848V29.1087H102.558V26.1841ZM112.862 25.3C111.008 24.8919 110.527 24.4839 110.527 23.6677C110.527 22.9196 111.214 22.3075 112.381 22.3075C113.274 22.3075 114.03 22.5796 114.854 23.2597L115.404 22.5116C114.511 21.8315 113.618 21.4914 112.381 21.4914C110.733 21.4914 109.565 22.4436 109.565 23.8038C109.565 25.232 110.458 25.8441 112.45 26.2522C114.236 26.6602 114.648 27.0683 114.648 27.8844C114.648 28.7685 113.893 29.3127 112.725 29.3127C111.557 29.3127 110.664 28.9046 109.771 28.0885L109.153 28.7685C110.183 29.6526 111.282 30.1288 112.656 30.1288C114.374 30.1288 115.61 29.1767 115.61 27.7484C115.61 26.4562 114.786 25.7081 112.862 25.3ZM57.3585 25.3C55.5039 24.8919 55.0229 24.4839 55.0229 23.6677C55.0229 22.9196 55.7098 22.3075 56.8776 22.3075C57.7708 22.3075 58.5263 22.5796 59.3506 23.2597L59.9002 22.5116C59.007 21.8315 58.1141 21.4914 56.8776 21.4914C55.2291 21.4914 54.0613 22.4436 54.0613 23.8038C54.0613 25.232 54.9542 25.8441 56.9463 26.2522C58.7324 26.6602 59.1444 27.0683 59.1444 27.8844C59.1444 28.7685 58.3889 29.3127 57.2211 29.3127C56.0533 29.3127 55.1604 28.9046 54.2674 28.0885L53.649 28.7685C54.6794 29.6526 55.7785 30.1288 57.1524 30.1288C58.8699 30.1288 60.1061 29.1767 60.1061 27.7484C60.1748 26.4562 59.2818 25.7081 57.3585 25.3ZM76.4551 29.3127C74.6005 29.3127 73.1579 27.7484 73.1579 25.7761C73.1579 23.8038 74.6005 22.3075 76.4551 22.3075C77.6229 22.3075 78.4472 22.7836 79.134 23.4637L79.8211 22.7836C78.9968 21.9675 78.0349 21.4234 76.4551 21.4234C73.9134 21.4234 72.1275 23.3957 72.1275 25.8441C72.1275 28.2926 73.9821 30.1968 76.3864 30.1968C77.9665 30.1968 78.9281 29.5846 79.8211 28.7005L79.2027 28.0885C78.4472 28.8366 77.6229 29.3127 76.4551 29.3127ZM49.665 25.3C47.8101 24.8919 47.3294 24.4839 47.3294 23.6677C47.3294 22.9196 48.0162 22.3075 49.184 22.3075C50.077 22.3075 50.8328 22.5796 51.657 23.2597L52.2064 22.5116C51.3135 21.8315 50.4205 21.4914 49.184 21.4914C47.5355 21.4914 46.3677 22.4436 46.3677 23.8038C46.3677 25.232 47.2607 25.8441 49.2527 26.2522C51.0389 26.6602 51.4509 27.0683 51.4509 27.8844C51.4509 28.7685 50.6953 29.3127 49.5275 29.3127C48.3598 29.3127 47.4668 28.9046 46.5736 28.0885L45.9555 28.7685C46.9858 29.6526 48.0849 30.1288 49.4588 30.1288C51.176 30.1288 52.4125 29.1767 52.4125 27.7484C52.4812 26.4562 51.5883 25.7081 49.665 25.3ZM70.4788 25.7761C70.4788 28.1565 68.6929 30.1968 66.0824 30.1968C63.472 30.1968 61.7548 28.1566 61.7548 25.8441C61.7548 23.4637 63.5407 21.4234 66.1512 21.4234C68.7616 21.4234 70.4788 23.3957 70.4788 25.7761ZM69.5171 25.7761C69.5171 23.8718 68.0745 22.2395 66.1512 22.2395C64.2278 22.2395 62.7852 23.8038 62.7852 25.7761C62.7852 27.7484 64.2278 29.3127 66.1512 29.3127C68.0745 29.3127 69.5171 27.7484 69.5171 25.7761ZM63.0601 16.6626H60.3809L57.2211 12.1739H54.4048V16.6626H52.138V3.80861H57.9079C60.8619 3.80861 62.7165 5.37286 62.7165 7.88925C62.7165 9.99758 61.4113 11.2898 59.6254 11.7659L63.0601 16.6626ZM57.7021 10.2016C59.3506 10.2016 60.3809 9.38547 60.3809 8.02528C60.3809 6.59705 59.3506 5.84892 57.7021 5.84892H54.4048V10.1336H57.7021V10.2016Z" fill="white"/>
</svg>
