<svg width="93" height="22" viewBox="0 0 93 22" fill="none" xmlns="http://www.w3.org/2000/svg">
<g clip-path="url(#clip0_26_352)">
<path d="M19.8682 0L4.48091 11.4231V0H0.845459V22H4.48091V15.3154L11.0755 10.4077L21.6436 22H26.3782L13.8655 8.29231L25.11 0H19.8682Z" fill="white"/>
<path d="M54.0246 0L38.6373 11.4231V0H34.9173V22H38.6373V15.3154L45.2318 10.4077L55.8 22H60.45L48.0218 8.29231L59.2664 0H54.0246Z" fill="white"/>
<path d="M89.3646 6.93846C89.3646 4.48462 87.8427 3.3 84.7991 3.3H71.9482V10.3231H85.0527C87.8427 10.3231 89.3646 9.05385 89.3646 6.93846ZM89.0264 22L83.1082 13.6231H71.9482V22H68.3127V0H85.6446C90.2946 0 93.0846 2.70769 93.0846 6.93846C93.0846 10.8308 90.6327 12.8615 87.3355 13.4538L93.2537 22H89.0264Z" fill="white"/>
</g>
<defs>
<clipPath id="clip0_26_352">
<rect width="93" height="22" fill="white"/>
</clipPath>
</defs>
</svg>
