<svg width="110" height="20" viewBox="0 0 110 20" fill="none" xmlns="http://www.w3.org/2000/svg">
<g clip-path="url(#clip0_26_342)">
<path d="M37.3685 10.9534H41.4705C42.0473 10.9534 42.5147 11.418 42.5147 11.9852C42.5147 12.5573 42.0473 13.017 41.4705 13.017H36.5233C36.4437 13.017 36.3691 13.0463 36.3145 13.0952L34.8228 14.3617C34.5941 14.5573 34.7333 14.9241 35.0317 14.9241H41.2219C41.2219 14.9241 41.2269 14.9241 41.2269 14.9192C41.2269 14.9143 41.2319 14.9143 41.2319 14.9143C41.3114 14.9192 41.386 14.9241 41.4655 14.9241C43.1063 14.9241 44.4389 13.6087 44.4389 11.9852C44.4389 10.4449 43.2406 9.17837 41.7092 9.05612C41.7092 9.05612 41.7042 9.05612 41.7042 9.05123C41.7042 9.04634 41.7042 9.04634 41.6992 9.04634H37.284C36.7073 9.04634 36.2399 8.5818 36.2399 8.01456C36.2399 7.44243 36.7073 6.98277 37.284 6.98277H42.2213C42.3009 6.98277 42.3804 6.95343 42.4401 6.89964L43.8273 5.63314C44.0461 5.43265 43.9019 5.07568 43.6085 5.07568H37.3685C37.3437 5.07568 37.3138 5.07568 37.289 5.07568C35.6482 5.07568 34.3157 6.39109 34.3157 8.01456C34.3157 9.63803 35.6482 10.9534 37.289 10.9534C37.3138 10.9534 37.3387 10.9534 37.3685 10.9534Z" fill="white"/>
<path d="M61.2448 5.07081C61.0658 5.07081 60.9216 5.21262 60.9216 5.39355V14.6063C60.9216 14.7823 61.0658 14.929 61.2448 14.929H68.7526C68.8421 14.929 68.9266 14.8899 68.9913 14.8263L69.931 13.8336C70.1249 13.6283 69.9807 13.2909 69.6923 13.2909H63.1391C62.9601 13.2909 62.8159 13.149 62.8159 12.9681V5.38866C62.8159 5.21262 62.6717 5.06592 62.4928 5.06592H61.2448V5.07081Z" fill="white"/>
<path fill-rule="evenodd" clip-rule="evenodd" d="M49.2222 5.0708C49.2222 5.07569 49.2222 5.07569 49.2222 5.0708C48.2626 5.11481 47.4919 5.87276 47.4471 6.81652V13.0121C47.4471 13.0366 47.4471 13.0659 47.4471 13.0904C47.4471 14.0732 48.2327 14.8752 49.2222 14.9143H56.0339C57.0184 14.8703 57.809 14.0684 57.809 13.0904C57.809 13.0659 57.809 13.0366 57.809 13.0121V6.82141C57.7692 5.87765 56.9985 5.11481 56.0389 5.07569H49.2222V5.0708ZM50.495 6.82141C50.4901 6.82141 50.4901 6.82141 50.495 6.82141C49.8934 6.84586 49.4111 7.32508 49.3863 7.92166V11.819C49.3863 11.8336 49.3863 11.8532 49.3863 11.8679C49.3863 12.484 49.8785 12.9926 50.495 13.017H54.7661C55.3826 12.9926 55.8748 12.484 55.8748 11.8679C55.8748 11.8532 55.8748 11.8336 55.8748 11.819V7.92166C55.85 7.32508 55.3677 6.85075 54.7661 6.82141H50.495Z" fill="white"/>
<path fill-rule="evenodd" clip-rule="evenodd" d="M80.8447 14.6062C80.8447 14.7823 80.9889 14.929 81.1679 14.929H82.4407C82.6197 14.929 82.7639 14.7872 82.7639 14.6062V6.98277C82.7639 6.95832 82.7639 6.92898 82.7639 6.90453C82.7639 5.92164 81.9833 5.11969 81.0088 5.08057H74.4705C74.4456 5.08057 74.4158 5.08057 74.3909 5.08057C73.3766 5.08057 72.5562 5.89719 72.5562 6.90942C72.5562 6.93387 72.5562 6.96321 72.5562 6.98766V14.6111C72.5562 14.7872 72.7004 14.9339 72.8794 14.9339H74.1523C74.3313 14.9339 74.4754 14.7921 74.4754 14.6111V11.4375C74.4754 11.2615 74.6196 11.1148 74.7986 11.1148H80.5364C80.7154 11.1148 80.8596 11.2566 80.8596 11.4375V14.6062H80.8447ZM74.4655 9.35929V7.77494C74.4655 7.15881 74.9677 6.66003 75.5842 6.66003H79.7309C80.3475 6.66003 80.8497 7.15881 80.8497 7.77494V9.35929C80.8497 9.53533 80.7055 9.68203 80.5265 9.68203H74.7887C74.6097 9.68203 74.4655 9.54022 74.4655 9.35929Z" fill="white"/>
<path fill-rule="evenodd" clip-rule="evenodd" d="M107.719 14.929C107.54 14.929 107.395 14.7872 107.395 14.6062V11.4327C107.395 11.2566 107.251 11.1099 107.072 11.1099H101.27C101.091 11.1099 100.947 11.2517 100.947 11.4327V14.6062C100.947 14.7823 100.803 14.929 100.624 14.929H99.3407C99.1617 14.929 99.0175 14.7872 99.0175 14.6062V6.98277C99.0175 6.95832 99.0175 6.92898 99.0175 6.90453C99.0175 5.8972 99.8479 5.07568 100.872 5.07568C100.897 5.07568 100.927 5.07568 100.952 5.07568H107.56C108.544 5.11969 109.335 5.92165 109.335 6.89964C109.335 6.92409 109.335 6.95343 109.335 6.97788V14.6014C109.335 14.7774 109.19 14.9241 109.011 14.9241H107.719V14.929ZM100.947 7.77495V9.3593C100.947 9.53534 101.091 9.68204 101.27 9.68204H107.072C107.251 9.68204 107.395 9.54023 107.395 9.3593V7.77495C107.395 7.15881 106.888 6.66004 106.267 6.66004H102.075C101.449 6.66004 100.947 7.15881 100.947 7.77495Z" fill="white"/>
<path d="M87.5571 5.0708C87.6515 5.0708 87.741 5.10992 87.8007 5.18327L93.5087 11.8776C93.7026 12.1026 94.0755 11.9657 94.0755 11.6674V5.39354C94.0755 5.2175 94.2197 5.0708 94.3987 5.0708H95.6715C95.8505 5.0708 95.9947 5.21261 95.9947 5.39354V14.6063C95.9947 14.7823 95.8505 14.929 95.6715 14.929H94.0904C94.0854 14.929 94.0805 14.9241 94.0805 14.9192C94.0805 14.9143 94.0805 14.9143 94.0755 14.9094L88.2681 8.26396C88.0742 8.03902 87.7013 8.18082 87.7013 8.47422V14.6111C87.7013 14.7872 87.5571 14.9339 87.3781 14.9339H86.0953C85.9163 14.9339 85.7721 14.7921 85.7721 14.6111V5.39354C85.7721 5.2175 85.9163 5.0708 86.0953 5.0708H87.5571Z" fill="white"/>
<path d="M4.71698 15.2665C4.87609 15.11 5.08989 15.022 5.31364 15.022H26.0224C26.4003 15.022 26.5892 15.4719 26.3207 15.731L22.2287 19.7555C22.0696 19.9119 21.8558 20 21.6321 20H0.923276C0.545397 20 0.356457 19.5501 0.624951 19.2909L4.71698 15.2665Z" fill="white"/>
<path d="M4.71698 0.244499C4.87609 0.0880196 5.08989 0 5.31364 0H26.0224C26.4003 0 26.5892 0.449878 26.3207 0.709046L22.2287 4.72861C22.0696 4.88509 21.8558 4.97311 21.6321 4.97311H0.923276C0.545397 4.97311 0.356457 4.52323 0.624951 4.26406L4.71698 0.244499Z" fill="white"/>
<path d="M22.2287 7.70653C22.0696 7.55006 21.8558 7.46204 21.6321 7.46204H0.923276C0.545397 7.46204 0.356457 7.91191 0.624951 8.17108L4.71698 12.1906C4.87609 12.3471 5.08989 12.4351 5.31364 12.4351H26.0224C26.4003 12.4351 26.5892 11.9853 26.3207 11.7261L22.2287 7.70653Z" fill="white"/>
</g>
<defs>
<clipPath id="clip0_26_342">
<rect width="108.889" height="20" fill="white" transform="translate(0.470703)"/>
</clipPath>
</defs>
</svg>
