<svg width="85" height="22" viewBox="0 0 85 22" fill="none" xmlns="http://www.w3.org/2000/svg">
<path d="M83.1826 9.45215C83.1826 4.69332 79.8668 1.34659 75.2185 1.34659C69.3014 1.34659 65.3357 5.64562 65.3357 11.7847C65.3357 16.5753 68.6833 19.8903 73.4103 19.8903C77.7094 19.8903 80.9137 17.8124 82.2303 14.4966H77.4556C76.8207 15.5284 75.4723 16.1783 73.8233 16.1783C71.2847 16.1783 69.6984 14.4966 69.5552 12.1172H82.9129C83.0871 11.2135 83.1826 10.4363 83.1826 9.45215ZM69.9203 8.89686C70.3483 6.70844 72.4748 4.96301 75.0443 4.96301C77.2655 4.96301 78.9464 6.58111 78.9464 8.89775H69.9203V8.89686ZM52.5023 19.4614L53.3591 14.8936C55.9764 15.417 56.3734 13.9413 57.0551 10.3885L57.3884 8.62718C58.3398 3.66234 60.2595 1.18743 65.7486 1.85412L64.891 6.42284C62.2737 5.89939 61.8139 7.88179 61.2277 10.9588L60.8943 12.7202C59.942 17.7487 57.9588 20.1281 52.5032 19.4623L52.5023 19.4614ZM46.0935 19.4782L49.3297 1.77455H53.5969L50.3766 19.4782H46.0935ZM21.6478 1.77455H25.7885L27.1369 14.5761L32.5625 1.77455H36.6705L38.1153 14.7035L43.3498 1.77455H47.4747L39.9713 19.4782H35.2761L33.7517 7.29467L28.5658 19.4791H24.0289L21.6478 1.77455Z" fill="white"/>
<path d="M6.18135 6.46969L1.26425 11.1649H9.62358L10.4963 9.11967H6.26093L8.91002 6.46969L7.37149 3.8206H14.5575L7.92589 19.4782H10.4167L17.9201 1.77454H3.42173L6.18135 6.46969Z" fill="#00B9FF"/>
</svg>
