<svg width="97" height="22" viewBox="0 0 97 22" fill="none" xmlns="http://www.w3.org/2000/svg">
<path d="M62.9326 8.01562C61.2987 6.56918 59.3263 5.86231 57.0458 5.86231C54.7965 5.86231 52.8242 6.5704 51.189 8.01562C49.555 9.43049 48.7247 11.4001 48.7247 13.9231C48.7247 16.446 49.555 18.4145 51.189 19.8608C52.8229 21.2758 54.7965 21.9838 57.0457 21.9838C59.3263 21.9838 61.2987 21.2758 62.9326 19.8608C64.598 18.4145 65.4284 16.446 65.4284 13.923C65.4284 11.4 64.5969 9.43057 62.9326 8.01562ZM53.965 17.153C53.1032 16.3228 52.6694 15.2451 52.6694 13.9231C52.6694 12.6 53.0999 11.5233 53.965 10.7234C54.8268 9.89327 55.8455 9.49322 57.0445 9.49322C58.2447 9.49322 59.2938 9.89327 60.1568 10.7234C61.0487 11.5233 61.4824 12.6 61.4824 13.9231C61.4824 15.2462 61.0521 16.3228 60.1567 17.153C59.2949 17.9528 58.2459 18.3528 57.0445 18.3528C55.8455 18.3528 54.8291 17.9528 53.965 17.153ZM71.256 21.552V0.440402H67.3729V21.552H71.256ZM83.7905 6.29223V14.7157C83.7905 16.7457 82.6914 18.0909 80.5991 18.0909C78.4721 18.0909 77.4021 16.7468 77.4021 14.7157V6.29223H73.512V15.3621C73.512 18.8757 75.7309 21.9823 80.5991 21.9823H80.629C85.4677 21.9823 87.6827 18.8071 87.6827 15.3621V6.29223H83.7905ZM44.5909 6.29223L40.7078 16.6294L36.8246 6.29223H32.6949L38.8912 21.5522H42.529L48.7241 6.29223H44.5909ZM32.7149 13.4917C32.7149 11.2768 32.0067 9.4619 30.6194 8.01562C29.2318 6.56918 27.4467 5.86231 25.258 5.86231C23.0088 5.86231 21.0969 6.63199 19.5245 8.1388C17.9825 9.64683 17.2138 11.5535 17.2138 13.9231C17.2138 16.2926 17.9836 18.2308 19.4943 19.7376C21.0364 21.2455 22.8855 21.9838 25.073 21.9838C28.4341 21.9838 30.8065 20.5073 32.252 17.5227L29.3563 15.8612C28.4026 17.7378 27.0141 18.6608 25.1347 18.6608C22.8239 18.6608 21.19 17.1844 20.9433 14.8462H32.7139V13.4917H32.7149ZM25.1324 8.81548C27.32 8.81548 28.7701 10.0456 29.1388 12.0152H20.9411C21.5283 10.2002 23.1287 8.81548 25.1324 8.81548ZM17.2139 21.5523L12.0038 12.4463C15.2996 11.2465 16.9336 9.15484 16.9336 6.10859C16.9371 2.38575 13.9761 0.0162659 9.26155 0.0162659H0.0484619V21.5523H4.11655V12.8149H7.56938L12.5608 21.5523H17.2139ZM9.26155 3.58444C11.6654 3.58444 12.868 4.53783 12.868 6.41443C12.868 8.29095 11.6643 9.24434 9.26155 9.24434H4.11655V3.58444H9.26155ZM94.2657 21.9825C91.7664 21.9825 89.7395 19.9582 89.7395 17.4596V2.16965H93.6221V6.29817H96.9516V9.43619H93.6221V17.2109C93.6221 17.9434 94.2165 18.5363 94.9513 18.5363H96.9516V21.9825H94.2657Z" fill="white"/>
</svg>
