<svg width="135" height="18" viewBox="0 0 135 18" fill="none" xmlns="http://www.w3.org/2000/svg">
<g clip-path="url(#clip0_26_311)">
<path d="M47.5504 17.82L45.8247 14.82C46.6316 13.2675 46.6316 11.4375 46.6316 9.02997C46.6316 6.02997 46.6316 3.77997 44.9059 1.95747C44.3112 1.30609 43.5818 0.793297 42.7687 0.455125C41.9556 0.116953 41.0786 -0.0384015 40.1994 -2.51387e-05C39.3225 -0.0194504 38.4513 0.144557 37.641 0.481565C36.8307 0.818572 36.0992 1.3212 35.4929 1.95747C33.7672 3.69747 33.7672 5.90247 33.7672 8.99998C33.7672 12.0975 33.6776 14.25 35.4929 16.065C36.0945 16.7108 36.8251 17.222 37.637 17.565C38.4489 17.8991 39.3225 18.0551 40.1994 18.0225C40.69 18.0153 41.1784 17.9549 41.6561 17.8425L47.5504 17.82ZM37.9433 13.9575C37.3157 13.2075 37.1364 12.3975 37.1364 8.99998C37.1364 5.60247 37.3531 4.76997 37.9433 4.04247C38.2305 3.75476 38.5704 3.52554 38.9443 3.36747C39.3152 3.20888 39.7141 3.12724 40.1172 3.12747C40.5226 3.12807 40.9239 3.20965 41.2976 3.36747C41.6692 3.52572 42.0066 3.75497 42.2911 4.04247C42.9187 4.79247 43.098 5.60247 43.098 8.99998C43.098 12.3975 42.9187 13.2225 42.2911 13.9575C42.0134 14.2533 41.6776 14.4882 41.305 14.6475C40.9271 14.7974 40.5235 14.8713 40.1172 14.865C39.7125 14.8731 39.3105 14.7965 38.9368 14.64C38.563 14.4825 38.2249 14.2503 37.9433 13.9575Z" fill="white"/>
<path d="M87.2792 0.179871H90.6186V17.8199H87.2792V0.179871Z" fill="white"/>
<path d="M6.34277 17.9999C3.73554 17.9999 1.73342 17.4524 0.000244141 15.7049L2.17419 13.4999C2.73585 14.014 3.39344 14.4113 4.10894 14.6688C4.82445 14.9262 5.58368 15.0388 6.34277 14.9999C8.33742 14.9999 9.42066 14.2499 9.42066 12.7949C9.43095 12.5241 9.38779 12.2539 9.29366 11.9999C9.20244 11.7482 9.05996 11.5183 8.8753 11.3249C8.44308 10.9521 7.90434 10.7263 7.33636 10.6799L5.22966 10.3874C3.97968 10.2806 2.8026 9.75189 1.8903 8.88741C1.47076 8.41983 1.14596 7.87468 0.934068 7.28241C0.711049 6.68117 0.61193 6.04073 0.642715 5.39991C0.627774 2.2949 2.89136 0.0899048 6.72377 0.0899048C9.07701 0.0899048 10.8924 0.629905 12.3491 2.1074L10.1528 4.22991C9.6794 3.79011 9.12028 3.45371 8.51076 3.242C7.90124 3.03028 7.2546 2.94784 6.61172 2.99991C4.79636 2.99991 3.89989 4.01991 3.89989 5.24991C3.91427 5.72743 4.10615 6.18227 4.43777 6.52491C4.90733 6.91598 5.47194 7.1748 6.07383 7.27491L8.15813 7.54491C9.40347 7.57872 10.5926 8.07279 11.4975 8.93241C11.961 9.43719 12.3214 10.0283 12.5583 10.6724C12.79 11.3237 12.894 12.0139 12.8646 12.7049C12.8646 16.0874 9.97348 18.0224 6.3353 18.0224" fill="white"/>
<path d="M17.7428 17.8199V0.179871H29.24V3.17987H21.1718V7.34237H28.0447V10.4999H21.1793V14.8274H29.2475V17.8274H17.7428" fill="white"/>
<path d="M58.1289 17.9999C54.5878 17.9999 51.6967 15.5249 51.6967 11.7599V0.179871H55.1556V11.6549C55.1556 13.6799 56.3434 14.8649 58.1438 14.8649C59.9442 14.8649 61.1321 13.6574 61.1321 11.6549V0.179871H64.4714V11.7449C64.4714 15.4949 61.6924 17.9849 58.1513 17.9849" fill="white"/>
<path d="M80.578 16.065C79.9827 16.715 79.2529 17.2264 78.4398 17.5632C77.6268 17.9001 76.7502 18.0543 75.8715 18.015C74.9958 18.039 74.1249 17.8777 73.3154 17.5418C72.5058 17.2058 71.7757 16.7027 71.1725 16.065C69.4767 14.3175 69.4767 12.1125 69.4767 8.99997C69.4767 5.88747 69.387 3.74997 71.2098 1.93497C71.7994 1.29076 72.5221 0.783769 73.3274 0.449513C74.1326 0.115257 75.0009 -0.0381744 75.8715 -3.0682e-05C76.7467 -0.0123517 77.6152 0.154163 78.4243 0.489389C79.2334 0.824615 79.9662 1.32155 80.578 1.94997C82.3037 3.69747 82.3037 5.90247 82.3037 9.01497C82.3037 12.1275 82.3037 14.25 80.578 16.065ZM78.0454 4.06497C77.7614 3.77721 77.4233 3.54879 77.0508 3.39291C76.6783 3.23703 76.2788 3.15678 75.8752 3.15678C75.4717 3.15678 75.0721 3.23703 74.6996 3.39291C74.3271 3.54879 73.9891 3.77721 73.705 4.06497C73.07 4.81497 72.8982 5.62497 72.8982 9.02247C72.8982 12.42 73.07 13.245 73.705 13.9725C73.9881 14.2621 74.3258 14.4921 74.6984 14.6491C75.071 14.8061 75.4711 14.887 75.8752 14.887C76.2794 14.887 76.6794 14.8061 77.0521 14.6491C77.4247 14.4921 77.7624 14.2621 78.0454 13.9725C78.673 13.2225 78.8523 12.42 78.8523 9.02247C78.8523 5.62497 78.6954 4.76997 78.0454 4.04247V4.06497Z" fill="white"/>
<path d="M106.665 17.8199L105.672 14.6999H99.5083L98.4326 17.8199H94.8766L101.242 0.179871H103.841L110.184 17.8199H106.665ZM102.579 5.31737L100.405 11.7449H104.753L102.579 5.31737Z" fill="white"/>
<path d="M130.123 0.179871H134.471V4.58987H130.123V0.179871Z" fill="white"/>
<path d="M119.253 14.0249V0.179871H117.079V16.2524L119.253 14.0249Z" fill="white"/>
<path d="M120.777 15.615L118.603 17.82H134.471V15.615H120.777Z" fill="white"/>
<path d="M123.601 9.63737V0.179871H121.427V11.8424L123.601 9.63737Z" fill="white"/>
<path d="M125.125 11.205L122.944 13.41H134.471V11.205H125.125Z" fill="white"/>
<path d="M127.942 5.24987V0.179871H125.768V7.43237L127.942 5.24987Z" fill="white"/>
<path d="M129.473 6.79492L127.306 8.99992H134.471V6.79492H129.473Z" fill="white"/>
</g>
<defs>
<clipPath id="clip0_26_311">
<rect width="134.471" height="18" fill="white"/>
</clipPath>
</defs>
</svg>
