<svg width="126" height="18" viewBox="0 0 126 18" fill="none" xmlns="http://www.w3.org/2000/svg">
<g clip-path="url(#clip0_26_357)">
<path d="M8.65077 15.0631C8.65077 16.0105 8.7448 16.2947 9.6851 16.3895L11.1896 16.4842V17.3368H3.00898V16.4842L4.41943 16.3895C5.2657 16.2947 5.45376 16.0105 5.45376 15.0631V1.98946H4.3254C1.97465 1.98946 1.69256 2.84209 0.940324 5.30525H0.0940552V0.947357H14.1045V5.39999H13.2582C12.6 2.84209 12.2239 1.98946 9.96719 1.98946H8.65077V15.0631Z" fill="white"/>
<path d="M19.7462 3.22104C19.7462 1.98946 19.5582 1.89473 17.7716 1.79999V0.947357H30.1835V5.21051H29.3373C28.6791 2.84209 28.3029 1.98946 25.8582 1.98946H23.7895C23.1313 1.98946 22.9432 2.17894 22.9432 2.84209V8.24209H25.6701C27.2686 8.24209 27.5507 7.76841 27.8328 6.06315H28.6791V11.4631H27.8328C27.5507 9.75788 27.2686 9.37893 25.6701 9.37893H22.9432V14.4947C22.9432 16.0105 23.1313 16.2947 25.7641 16.2947C28.585 16.2947 29.4313 15.3474 30.1835 12.6947H30.9358L30.8418 17.3368H17.8656V16.4842C19.6522 16.3895 19.7462 16.2947 19.7462 15.0631V3.22104Z" fill="white"/>
<path d="M34.791 17.3368V16.4842C36.0134 16.3895 36.3895 16.4842 36.5776 15.1579C36.6716 14.3053 36.6716 13.4526 36.6716 11.6526V3.22104C36.6716 1.98946 36.4836 1.89473 34.791 1.79999V0.947357H40.7149C41.9373 4.16841 44.1 9.75788 45.1343 12.4105H45.2283C46.5447 8.90525 48.5194 4.35788 49.7418 0.947357H55.3836V1.79999C53.597 1.79999 53.3149 1.89473 53.3149 3.1263V14.9684C53.3149 16.2 53.503 16.3895 55.2895 16.4842V17.3368H48.3313V16.4842C50.1179 16.3895 50.2119 16.2947 50.2119 15.0631V3.22104H50.1179C48.7074 6.91578 45.6985 14.4947 44.7582 17.1474H43.5358C42.0313 12.9789 39.2104 6.44209 37.988 3.22104V3.31578V11.7474C37.988 13.5474 37.988 14.4947 38.0821 15.2526C38.2701 16.6737 39.0224 16.3895 40.3388 16.4842V17.3368H34.791Z" fill="white"/>
<path d="M67.1373 17.3369V16.4843H68.4537C69.0179 16.3895 69.1119 16.2 68.9239 15.6316C68.5478 14.3053 67.7955 12.3158 67.5134 11.3685H62.8119C62.3418 12.7895 61.8716 14.4 61.5896 15.4421C61.4015 15.9158 61.4955 16.2948 62.0597 16.3895H63.4701V17.2421H58.0164V16.3895C59.4269 16.2948 59.5209 16.2948 59.991 15.0632C61.4015 11.6527 63.5642 5.21057 65.0687 0.757935H67.6075C68.9239 4.83162 71.3687 11.9369 72.403 15.2527C72.6851 16.2948 73.0612 16.3895 74.3776 16.3895V17.2421H67.1373V17.3369ZM65.1627 3.78951C64.5985 5.49478 63.6582 8.24214 63.094 10.3264H67.1373C66.5731 8.71583 65.7269 5.40004 65.1627 3.78951Z" fill="white"/>
<path d="M86.6955 5.39997C86.1313 2.74734 84.7209 1.6105 83.1224 1.6105C81.5239 1.6105 80.5836 2.74734 80.5836 4.26313C80.5836 6.06313 82.2761 6.82102 84.0627 7.67365C86.4134 8.71576 88.5761 9.66313 88.5761 12.7894C88.5761 15.2526 87.0716 17.9052 82.4642 17.9052C80.8657 17.9052 78.703 17.621 77.5746 16.4842L77.2925 12.221H78.1388C78.9851 15.1579 80.5836 16.7684 82.5582 16.7684C84.2508 16.7684 85.5672 15.821 85.5672 14.021C85.5672 12.4105 84.4388 11.3684 82.3702 10.5158C79.7373 9.37892 77.4806 8.14734 77.4806 5.49471C77.4806 2.55786 79.4552 0.56839 83.2164 0.56839C84.7209 0.56839 86.5075 0.947337 87.6358 1.6105V5.39997H86.6955Z" fill="white"/>
<path d="M95.0642 3.22104C95.0642 1.98946 94.8761 1.89473 93.1836 1.79999V0.947357H105.69V5.21051H104.843C104.185 2.84209 103.809 1.98946 101.27 1.98946H99.4836C98.8254 1.98946 98.6373 2.17894 98.6373 2.84209V8.24209H100.988C102.587 8.24209 102.869 7.76841 103.151 6.06315H103.997V11.6526H103.151C102.869 9.94736 102.587 9.37893 100.988 9.37893H98.6373V14.4947C98.6373 16.0105 98.8254 16.2947 101.458 16.2947C104.279 16.2947 104.937 15.1579 105.69 12.5053H106.536L106.16 17.3368H93.0895V16.4842C94.8761 16.3895 94.9701 16.2947 94.9701 15.0631V3.22104H95.0642Z" fill="white"/>
<path d="M112.272 3.22104C112.272 1.98946 112.084 1.89473 110.391 1.79999V0.947357H117.537V1.79999C115.751 1.89473 115.657 1.98946 115.657 3.22104V15.0631C115.657 16.2947 115.845 16.3895 117.631 16.4842V17.3368H110.485V16.4842C112.272 16.3895 112.366 16.2947 112.366 15.0631V3.22104H112.272ZM120.922 1.89473L119.888 1.79999V0.947357H126.094V1.79999C124.496 1.89473 123.837 2.27367 122.897 2.93683C121.299 4.26315 119.982 5.58946 118.196 7.4842C119.606 9.75788 121.769 12.8842 123.837 15.1579C124.496 15.9158 125.342 16.4842 126 16.6737L125.906 17.5263L124.307 17.4316C121.675 17.3368 120.64 16.5789 119.042 14.4947C117.725 12.7895 115.281 8.81051 115.281 8.81051C117.161 6.91578 119.7 4.16841 120.922 2.55788C121.299 2.17894 121.299 1.89473 120.922 1.89473Z" fill="white"/>
</g>
<defs>
<clipPath id="clip0_26_357">
<rect width="126" height="18" fill="white"/>
</clipPath>
</defs>
</svg>
