<?xml version="1.0" standalone="no"?>
<!DOCTYPE svg PUBLIC "-//W3C//DTD SVG 20010904//EN"
 "http://www.w3.org/TR/2001/REC-SVG-20010904/DTD/svg10.dtd">
<svg version="1.0" xmlns="http://www.w3.org/2000/svg"
 width="1280.000000pt" height="640.000000pt" viewBox="0 0 1280.000000 640.000000"
 preserveAspectRatio="xMidYMid meet">
<metadata>
Created by potrace 1.15, written by Peter Selinger 2001-2017
</metadata>
<g transform="translate(0.000000,640.000000) scale(0.100000,-0.100000)"
fill="#000000" stroke="none">
<path d="M12523 5145 c-12 -9 -38 -46 -58 -83 -67 -127 -154 -215 -335 -334
-303 -199 -675 -331 -1150 -408 -292 -46 -1100 -113 -2015 -165 -1058 -60
-1995 -98 -2270 -93 -179 3 -193 4 -240 28 -36 18 -57 37 -75 70 -18 31 -33
45 -47 45 -12 0 -24 3 -28 7 -3 3 -6 48 -6 99 0 88 1 95 25 114 53 42 80 173
41 201 -24 18 -184 18 -235 1 -69 -24 -77 -115 -16 -185 30 -34 31 -39 31
-126 0 -115 -18 -149 -105 -195 -65 -35 -70 -40 -80 -85 -9 -46 -33 -39 -45
14 -13 59 -19 66 -55 73 -22 5 -34 16 -48 44 -10 21 -24 37 -32 35 -23 -5 -30
20 -30 108 0 92 5 106 41 124 16 7 26 23 30 46 3 19 12 45 20 58 12 19 12 26
-1 50 -19 34 -67 51 -145 51 -76 1 -125 -13 -159 -44 -28 -26 -28 -22 11 -123
61 -159 28 -345 -67 -377 -25 -8 -42 -24 -58 -53 -13 -23 -28 -42 -33 -42 -5
0 -9 20 -9 44 0 43 -1 44 -37 53 -27 6 -45 19 -64 48 -14 21 -36 42 -47 46
-24 9 -37 74 -29 147 4 35 12 52 36 71 55 47 66 165 20 207 -18 16 -37 19
-129 19 -92 0 -111 -3 -129 -19 -43 -39 -36 -139 15 -216 31 -47 47 -185 23
-204 -8 -6 -26 -29 -40 -52 -23 -34 -34 -42 -75 -50 -43 -8 -49 -12 -52 -37
-2 -15 -13 -32 -24 -38 -35 -19 -563 -28 -2203 -39 -960 -7 -1558 -15 -1605
-21 -41 -6 -122 -12 -180 -13 -65 -2 -128 -9 -166 -20 -56 -16 -64 -16 -91 -3
-16 9 -36 23 -43 32 -24 29 -108 65 -188 81 -42 9 -108 30 -147 46 -96 42
-146 47 -173 18 -27 -29 -52 -139 -52 -227 0 -80 25 -271 40 -319 21 -63 72
-70 169 -24 35 17 94 35 132 40 74 11 138 33 225 80 64 34 92 37 135 14 43
-22 141 -21 184 1 32 18 38 18 142 1 64 -10 224 -22 391 -28 203 -8 282 -15
278 -23 -2 -6 -31 -53 -64 -103 -112 -171 -159 -343 -149 -552 13 -286 87
-459 277 -650 193 -194 286 -218 1047 -270 155 -10 291 -23 301 -29 12 -6 22
-26 26 -50 7 -43 28 -63 78 -75 31 -7 44 8 73 87 l18 48 773 -3 c543 -2 776
-6 784 -14 6 -6 17 -115 26 -265 9 -139 21 -269 27 -288 8 -24 27 -45 57 -65
25 -16 49 -37 54 -45 22 -37 65 -70 99 -76 56 -11 84 1 106 43 11 20 40 57 65
82 52 50 61 74 75 200 11 99 25 140 45 140 25 0 34 -31 46 -160 13 -137 27
-176 68 -186 37 -9 51 -22 67 -60 34 -82 97 -78 196 14 83 77 91 96 100 233 7
126 22 172 56 177 28 4 30 -6 41 -158 10 -132 28 -182 73 -201 21 -8 39 -29
60 -70 32 -63 51 -79 99 -79 46 0 66 14 104 75 19 29 44 59 55 65 50 26 55 54
59 366 l4 292 257 6 c141 3 785 11 1431 17 1284 12 1359 10 1445 -35 53 -29
91 -29 145 -1 45 23 113 85 153 139 58 77 96 114 157 153 150 97 223 201 315
453 63 170 88 281 80 346 -3 30 -11 54 -16 54 -5 0 -9 -5 -9 -12 0 -25 -122
-257 -164 -313 -53 -68 -101 -109 -120 -102 -11 5 -9 26 11 114 29 126 41 388
25 563 -5 58 -7 107 -6 109 6 7 604 -20 776 -35 464 -39 731 -108 1058 -270
283 -141 436 -264 514 -414 49 -95 63 -110 97 -110 80 0 146 202 186 566 14
128 17 245 17 599 -2 811 -52 1157 -185 1269 -35 30 -55 32 -86 11z m106 -87
c60 -98 105 -428 132 -968 23 -453 -3 -872 -70 -1139 -46 -182 -67 -219 -116
-207 -31 8 -32 29 -2 49 39 25 79 182 113 442 16 119 19 207 19 590 0 461 -7
587 -46 877 -22 165 -50 284 -79 341 -25 47 -25 47 5 47 18 0 31 -10 44 -32z
m-91 -181 c23 -83 -7 -124 -163 -222 -254 -160 -574 -287 -1060 -422 -232 -64
-239 -80 -18 -43 180 31 357 72 560 131 165 48 234 59 145 24 -22 -9 -43 -23
-46 -31 -3 -8 -48 -34 -101 -59 -52 -24 -95 -47 -95 -51 0 -10 93 3 217 31
170 38 444 142 544 206 25 16 50 29 56 29 28 0 37 -59 41 -287 l4 -233 -241 0
c-252 0 -590 -17 -604 -30 -11 -10 88 -17 393 -30 408 -18 450 -26 450 -96 0
-43 -17 -51 -79 -36 -172 44 -683 73 -1356 77 -603 4 -617 -3 -60 -29 516 -25
692 -43 654 -67 -40 -25 -98 -23 -564 16 -93 8 -404 19 -690 25 -517 11 -520
11 -535 33 -81 118 -212 195 -391 228 -44 8 -279 14 -744 18 l-680 6 250 13
c1137 60 1529 86 2221 152 331 31 449 47 609 80 416 86 791 265 1130 539 62
50 108 80 120 79 14 -2 23 -16 33 -51z m57 -227 c18 -29 -81 -123 -205 -194
-52 -30 -70 -32 -70 -10 0 37 41 80 138 145 102 68 125 78 137 59z m-6287 -46
c12 -4 22 -13 22 -20 0 -19 -37 -21 -145 -8 l-60 8 60 12 c72 14 93 16 123 8z
m-1073 -34 c0 -33 -209 -57 -221 -25 -4 8 -1 22 6 30 19 22 215 17 215 -5z
m545 11 c0 -25 -146 -43 -179 -22 -11 7 -10 11 5 20 23 13 174 15 174 2z m-2
-84 c8 -43 -146 -63 -185 -24 -14 13 -14 19 -3 32 10 13 30 15 99 13 73 -3 86
-6 89 -21z m528 12 c15 -25 -24 -41 -101 -43 -64 -1 -79 2 -89 17 -9 14 -8 20
4 27 21 14 177 13 186 -1z m-1097 -20 c42 -15 28 -28 -35 -35 -56 -6 -126 6
-131 23 -8 23 111 31 166 12z m-55 -231 c1 -56 -1 -63 -19 -66 -38 -4 -50 14
-50 76 0 36 5 66 14 76 13 16 16 16 34 -3 15 -15 20 -34 21 -83z m1086 66 c6
-14 10 -47 10 -74 0 -82 -38 -79 -47 4 -9 80 16 127 37 70z m-542 -41 c3 -56
-10 -93 -33 -93 -34 0 -47 88 -19 128 27 39 49 24 52 -35z m-508 -122 c28 -8
39 -39 18 -52 -7 -5 -42 -9 -78 -9 -73 0 -94 9 -88 36 4 20 36 32 88 32 19 0
46 -3 60 -7z m572 -9 c19 -19 -34 -42 -97 -42 -86 0 -111 25 -51 51 26 11 134
5 148 -9z m571 -1 c19 -19 -4 -26 -83 -26 -91 0 -125 17 -69 34 40 12 137 7
152 -8z m-6206 -108 c10 -37 10 -241 0 -276 -7 -24 -12 -28 -39 -25 -27 3 -33
8 -41 38 -14 52 -1 237 18 266 21 33 53 31 62 -3z m4992 13 c32 -38 -26 -68
-125 -64 -68 3 -69 3 -72 32 -2 16 2 32 10 37 23 15 174 11 187 -5z m216 -10
c0 -10 -8 -24 -18 -30 -14 -9 -21 -7 -32 7 -19 27 -8 49 24 45 18 -2 26 -9 26
-22z m235 9 c17 -20 6 -43 -25 -51 -53 -13 -101 20 -74 52 15 19 83 18 99 -1z
m98 -6 c-2 -12 -13 -28 -25 -37 -21 -13 -23 -13 -23 6 0 22 24 52 41 52 6 0 9
-10 7 -21z m191 7 c18 -22 -4 -58 -32 -54 -37 5 -36 68 1 68 11 0 25 -6 31
-14z m310 -5 c19 -19 20 -19 37 0 17 19 18 19 46 -8 37 -36 24 -43 -83 -43
-137 0 -181 16 -149 55 19 23 125 20 149 -4z m236 -17 c0 -22 -5 -30 -21 -32
-28 -4 -37 20 -17 47 20 29 38 22 38 -15z m1214 0 c2 -2 -25 -4 -60 -3 -47 1
-57 3 -39 9 22 7 89 3 99 -6z m1574 -28 c3 -7 8 -33 12 -57 l7 -44 -367 5
c-398 5 -385 3 -385 63 0 19 7 30 23 37 12 5 176 9 363 9 281 1 343 -1 347
-13z m205 2 c16 -16 15 -73 -2 -87 -9 -7 -39 -11 -77 -9 -57 3 -63 5 -71 29
-5 16 -5 37 1 52 10 25 15 27 74 27 36 0 68 -5 75 -12z m216 -8 c279 -71 448
-305 495 -685 13 -110 14 -213 2 -200 -5 6 -19 60 -31 120 -36 185 -83 333
-110 350 -13 8 -14 11 21 -89 27 -79 30 -99 30 -204 -1 -343 -78 -549 -253
-678 -84 -62 -271 -154 -313 -154 -39 0 -52 23 -34 63 13 28 30 38 107 62 213
67 359 374 323 675 -12 98 -47 219 -91 316 -51 114 -137 183 -226 184 -49 0
-87 24 -64 40 39 26 169 -4 250 -57 30 -20 75 -58 101 -85 26 -26 50 -48 53
-48 11 0 -18 55 -51 99 -61 82 -160 144 -270 170 -72 17 -82 28 -90 89 l-6 52
40 0 c22 0 75 -9 117 -20z m-1271 -15 c9 -4 17 -15 17 -26 0 -43 -22 -46 -575
-64 -505 -16 -834 -31 -903 -41 l-43 -6 16 38 c25 61 42 72 130 85 165 23
1308 35 1358 14z m-7859 -26 c39 -18 62 -104 34 -127 -17 -14 -120 -32 -180
-32 -66 0 -88 23 -88 92 0 81 15 92 122 84 47 -3 98 -11 112 -17z m6046 -38
l0 -59 -402 -6 c-495 -7 -2228 -26 -2394 -26 l-122 0 -7 36 c-4 23 -2 41 5 48
7 7 127 13 373 17 199 4 567 12 817 19 416 10 1182 24 1573 28 l157 2 0 -59z
m249 45 c18 -11 14 -93 -5 -100 -29 -11 -169 -7 -182 6 -13 13 -16 66 -4 84 4
7 16 14 27 17 26 8 149 2 164 -7z m-6577 -47 c-1 -22 -3 -44 -6 -47 -3 -3 -6
19 -6 48 0 29 3 51 6 47 4 -3 6 -25 6 -48z m8225 -66 c-2 -21 -4 -4 -4 37 0
41 2 58 4 38 2 -21 2 -55 0 -75z m-6900 -32 c-6 -108 -21 -161 -39 -143 -28
28 -17 222 14 259 22 27 31 -16 25 -116z m-108 39 c6 -36 11 -99 11 -140 l0
-74 -21 20 c-34 35 -48 194 -22 261 10 25 21 0 32 -67z m2111 61 c32 -9 39
-46 11 -60 -29 -16 -314 -29 -866 -41 -544 -11 -981 -12 -1040 -2 -34 6 -40
11 -43 34 -2 19 3 30 18 38 15 8 219 14 673 21 359 5 679 11 712 12 123 6 511
5 535 -2z m-2248 -20 c67 -8 78 -16 56 -37 -22 -22 -179 -39 -255 -28 -45 7
-59 13 -61 28 -7 34 25 46 117 45 47 0 112 -4 143 -8z m-433 -27 c40 -51 19
-154 -37 -175 -54 -21 -106 10 -122 72 -20 72 23 128 97 129 33 0 46 -5 62
-26z m121 -62 c0 -18 -5 -43 -11 -54 -11 -21 -12 -21 -25 -3 -17 23 -18 79 -3
107 11 21 12 21 25 3 8 -10 14 -34 14 -53z m-337 12 c6 -35 -11 -96 -26 -91
-7 2 -13 25 -15 51 -5 69 29 102 41 40z m8067 -4 c25 -16 -33 -30 -123 -30
-92 0 -128 12 -87 29 32 12 190 14 210 1z m671 -1 c61 -21 55 -29 -21 -29 -77
0 -108 9 -96 29 9 14 74 14 117 0z m-1011 -9 c0 -17 -37 -30 -107 -35 -53 -5
-989 -25 -1321 -29 -52 -1 -66 3 -78 18 -9 14 -11 23 -4 30 14 14 324 22 958
24 349 1 552 -2 552 -8z m810 -2 c31 -10 32 -12 15 -25 -41 -29 -227 -10 -249
26 -10 15 190 15 234 -1z m-302 -28 c58 -26 53 -39 -13 -28 -77 12 -113 27
-95 38 23 15 61 11 108 -10z m-2058 -10 c26 -15 -34 -30 -113 -29 -115 1 -138
21 -47 40 39 8 137 1 160 -11z m-292 1 c11 -6 10 -10 -4 -15 -36 -14 -544 -26
-1524 -36 -553 -6 -1081 -15 -1174 -21 -92 -5 -177 -7 -187 -4 -24 8 -25 40
-1 51 39 17 2864 42 2890 25z m-5179 -35 c22 -14 -30 -36 -102 -42 -70 -7
-181 9 -205 28 -13 11 -11 14 19 20 48 9 271 5 288 -6z m-825 -27 c-73 -78
-254 -113 -254 -49 0 22 -6 20 150 51 57 11 107 22 109 25 2 2 9 4 15 4 5 0
-3 -14 -20 -31z m3006 13 l35 -8 -30 -7 c-25 -6 -1026 -22 -1738 -28 -181 -1
-217 5 -189 33 9 9 67 15 175 19 221 9 1703 2 1747 -9z m5978 -14 c-3 -7 -31
-27 -64 -44 -100 -53 -121 -78 -130 -159 -5 -39 -9 -209 -9 -380 0 -411 6
-432 125 -472 56 -18 76 -45 45 -57 -21 -8 -90 23 -133 58 -18 16 -45 49 -60
75 l-27 46 0 386 0 386 38 56 c52 80 106 117 169 117 35 0 48 -4 46 -12z
m-668 -17 c24 -45 0 -156 -34 -156 -34 0 -60 111 -36 156 6 11 21 19 35 19 14
0 29 -8 35 -19z m-555 0 c388 -9 445 -15 412 -48 -13 -13 -52 -18 -204 -26
-198 -9 -923 -3 -1523 13 -406 11 -470 16 -470 36 0 15 22 22 85 27 81 7 1342
5 1700 -2z m-2321 -276 c4 -104 11 -230 17 -278 12 -96 7 -111 -36 -119 -36
-7 -48 13 -42 74 3 29 10 98 16 153 5 55 10 175 11 266 0 163 9 222 21 137 3
-23 9 -128 13 -233z m3320 266 c3 -4 -9 -25 -27 -45 l-32 -36 -130 11 c-71 5
-143 14 -160 18 -38 9 -41 42 -5 52 37 10 348 11 354 0z m3069 -2 c31 -7 57
-15 57 -18 -1 -12 -99 -81 -115 -81 -48 0 -70 44 -45 91 12 22 26 23 103 8z
m-7499 -91 c12 -146 26 -498 26 -649 l0 -146 -227 -6 c-126 -4 -457 -10 -738
-13 -579 -7 -570 -8 -618 64 -31 45 -60 54 -112 30 -29 -13 -34 -52 -10 -84
25 -33 17 -50 -48 -107 -66 -58 -78 -76 -127 -197 -17 -41 -38 -85 -48 -97
l-17 -22 -268 19 c-372 27 -453 40 -552 89 -44 22 -105 60 -136 85 -95 75
-137 190 -146 396 -5 108 -3 136 16 203 37 136 88 211 218 323 128 109 201
133 474 153 169 13 1250 34 1990 39 l317 2 6 -82z m5929 57 c504 -37 789 -86
1107 -191 187 -61 399 -162 538 -254 98 -65 132 -105 132 -155 0 -45 -19 -105
-34 -105 -7 0 -37 21 -67 46 -254 217 -567 385 -854 458 -288 73 -643 112
-1130 125 -300 9 -339 14 -377 48 -27 24 -22 41 15 47 55 8 457 -4 670 -19z
m-10576 -22 c-3 -10 -5 -4 -5 12 0 17 2 24 5 18 2 -7 2 -21 0 -30z m12401 -18
c24 -28 29 -74 11 -107 -9 -16 -17 -19 -42 -14 -46 9 -166 56 -173 68 -9 15
56 77 91 87 40 10 85 -3 113 -34z m-7492 -86 c10 -213 18 -229 108 -229 l54 0
4 148 c5 153 11 182 34 182 27 0 34 -41 34 -209 l0 -171 -225 0 -225 0 0 133
c1 205 19 257 90 257 39 0 50 -32 57 -169 l7 -116 12 136 c6 75 14 142 19 148
16 27 26 -9 31 -110z m473 99 c7 -20 20 -106 35 -233 1 -16 4 20 5 81 1 128 8
174 26 174 22 0 27 -30 33 -182 l5 -148 70 0 70 0 -7 125 c-7 133 -2 175 20
175 26 0 33 -39 35 -196 l1 -159 -103 -6 c-57 -4 -150 -7 -206 -8 l-103 -1 -1
128 c0 70 -4 150 -9 177 -11 70 8 89 93 94 20 1 30 -5 36 -21z m558 10 c4 -7
7 -69 5 -137 -2 -68 0 -137 3 -153 14 -60 28 -9 36 128 9 150 14 174 34 174
22 0 27 -29 32 -170 3 -74 10 -141 15 -147 15 -18 73 -16 89 3 9 11 14 56 17
143 4 160 6 173 35 169 18 -2 23 -12 29 -48 6 -42 11 -320 6 -320 -2 -1 -43
-7 -93 -15 -73 -11 -116 -11 -223 -2 l-133 11 3 169 c3 164 4 169 27 188 27
22 105 26 118 7z m3462 1 c56 -20 33 -29 -69 -29 -62 0 -100 4 -100 10 0 27
110 39 169 19z m-9454 -23 c20 -15 15 -43 -10 -52 -25 -10 -65 5 -65 24 0 39
40 54 75 28z m1765 -21 c0 -2 -35 -58 -78 -123 -44 -66 -93 -153 -110 -194
-34 -81 -62 -220 -62 -302 1 -68 23 -187 49 -260 55 -157 186 -324 295 -376
132 -62 339 -96 675 -110 273 -11 277 -12 312 -82 l21 -41 -274 6 c-320 7
-467 20 -598 53 -183 46 -295 117 -405 256 -145 183 -206 385 -190 626 9 141
25 196 99 347 69 138 100 177 156 193 37 11 110 15 110 7z m3530 -399 c25 -95
21 -149 -11 -169 -24 -15 -67 0 -75 26 -12 38 -7 103 12 138 13 26 20 78 28
224 l11 190 6 -160 c5 -117 13 -184 29 -249z m2115 389 c642 -6 1152 -19 1164
-31 3 -3 7 -126 8 -272 0 -147 3 -283 5 -302 3 -34 2 -35 -37 -38 -49 -4 -63
-15 -86 -69 -16 -38 -21 -42 -61 -47 -24 -3 -243 -8 -488 -11 -245 -3 -710
-10 -1033 -16 -324 -6 -590 -9 -592 -7 -3 3 40 640 50 746 l7 63 196 -5 c109
-3 499 -8 867 -11z m2000 -20 c83 -8 160 -18 172 -21 25 -7 35 -29 62 -139 47
-192 44 -298 -12 -447 -49 -128 -113 -207 -199 -242 l-36 -15 -36 43 c-24 30
-51 50 -83 62 -27 9 -58 28 -70 41 -23 24 -23 27 -23 322 0 164 3 325 6 357 6
60 6 60 38 57 17 -2 99 -10 181 -18z m-351 -272 c-3 -159 -7 -330 -10 -380
l-6 -93 -61 0 c-86 0 -113 16 -110 63 2 33 -2 40 -29 57 -17 10 -48 22 -69 25
-55 9 -63 24 -50 85 15 71 13 180 -4 210 -18 31 -18 76 -3 207 l12 102 60 4
c34 2 109 4 168 5 l106 2 -4 -287z m-393 72 c0 -81 -6 -115 -21 -115 -21 0
-28 168 -9 217 l11 28 10 -25 c5 -13 9 -61 9 -105z m-2964 -217 c-7 -86 -24
-148 -39 -148 -8 0 -9 26 -4 84 7 92 19 136 37 136 9 0 10 -20 6 -72z m296
-603 c4 -368 11 -722 16 -785 l8 -115 2 105 c1 58 6 201 10 318 8 229 17 267
47 196 14 -34 16 -76 13 -329 l-4 -290 39 2 c22 2 44 7 49 12 5 5 13 126 18
268 9 263 14 313 30 313 9 0 13 -14 24 -82 7 -46 -14 -551 -23 -559 -4 -4 -79
-9 -168 -12 l-161 -6 -7 772 c-4 425 -10 791 -15 814 -5 23 -6 45 -3 48 4 3
31 5 62 3 l55 -3 8 -670z m72 611 c10 -90 2 -508 -10 -526 -17 -27 -23 35 -24
271 -1 226 5 319 20 319 4 0 11 -29 14 -64z m190 22 c-4 -24 -10 -146 -14
-271 -5 -156 -11 -231 -20 -240 -27 -27 -32 17 -28 263 3 135 8 255 12 268 5
15 15 22 32 22 24 0 25 -2 18 -42z m-1378 3 c16 -19 16 -19 33 1 22 28 46 18
54 -24 18 -87 39 -538 25 -538 -3 0 -11 19 -18 43 -7 23 -22 63 -33 89 -18 43
-22 46 -44 37 -18 -6 -35 -5 -59 5 -27 12 -35 21 -39 48 -11 80 -28 337 -22
347 12 19 84 13 103 -8z m284 -8 c15 -38 5 -146 -15 -174 -21 -30 -20 -50 4
-127 22 -71 24 -82 11 -82 -18 0 -61 211 -61 301 0 92 38 142 61 82z m270 11
c19 -23 27 -377 9 -399 -14 -16 -47 -20 -68 -6 -19 12 -40 361 -24 396 14 30
62 35 83 9z m110 -19 c9 -39 9 -291 0 -330 -9 -44 -42 -41 -54 5 -11 42 -5
330 6 348 14 22 41 9 48 -23z m3140 14 c11 -21 8 -104 -4 -115 -12 -12 -48 9
-62 36 -18 35 -19 72 -3 88 19 19 56 14 69 -9z m-27 -186 c10 -26 8 -175 -2
-203 l-10 -25 -11 28 c-12 30 -15 157 -5 195 7 26 19 29 28 5z m-2806 -26 c8
-9 12 -22 9 -30 -7 -20 -115 -43 -137 -30 -24 16 -19 56 10 71 30 16 97 9 118
-11z m-541 -4 c6 -17 -50 -43 -91 -43 -51 0 -56 22 -11 48 25 15 97 11 102 -5z
m4879 -130 c-18 -54 -63 -133 -75 -133 -5 0 -14 7 -21 15 -10 12 -7 25 15 67
40 77 89 137 93 115 2 -10 -3 -38 -12 -64z m-4504 11 c14 -108 4 -544 -13
-544 -19 0 -25 104 -21 343 3 184 8 257 16 254 6 -2 14 -26 18 -53z m3132 40
c20 -20 20 -29 -1 -65 -19 -32 -58 -48 -74 -32 -14 14 -39 100 -32 107 13 13
92 6 107 -10z m-255 -8 c22 -26 25 -80 6 -96 -15 -13 -20 -11 -41 13 -28 33
-30 54 -7 79 19 22 27 22 42 4z m-5461 -35 c5 -30 -11 -45 -37 -36 -25 8 -28
40 -3 54 24 14 36 8 40 -18z m1967 -2 c0 -15 -7 -25 -17 -27 -13 -3 -18 3 -18
21 0 13 3 27 7 31 13 12 28 -1 28 -25z m234 7 c10 -12 7 -18 -18 -30 -62 -33
-111 -8 -59 28 28 20 62 20 77 2z m534 -81 c11 -118 2 -362 -14 -381 -7 -8
-24 -14 -38 -12 -22 3 -27 9 -34 53 -11 68 8 401 24 421 7 8 22 14 33 12 19
-3 22 -12 29 -93z m-2703 -10 c7 -9 10 -18 7 -21 -10 -11 -37 5 -37 21 0 19
14 19 30 0z m1990 -5 c0 -13 -7 -20 -20 -20 -13 0 -20 7 -20 20 0 13 7 20 20
20 13 0 20 -7 20 -20z m3340 -2 c19 -9 49 -19 67 -23 34 -7 50 -32 33 -49 -15
-15 -240 -24 -586 -25 -315 -1 -1055 -17 -1196 -26 l-88 -6 0 41 c0 59 13 77
62 86 97 16 358 22 998 20 604 -1 679 -3 710 -18z m508 -27 c2 -24 -1 -48 -7
-54 -17 -17 -191 -11 -209 7 -22 21 -8 44 31 51 19 4 47 15 63 26 20 14 43 19
74 17 l45 -3 3 -44z m96 9 c31 -47 33 -66 6 -73 -26 -7 -50 27 -50 69 0 26 6
44 15 44 1 0 14 -18 29 -40z m225 19 c17 -16 20 -24 10 -35 -6 -8 -18 -14 -27
-14 -22 0 -52 30 -52 52 0 25 40 24 69 -3z m611 6 c0 -24 -50 -97 -63 -92 -7
2 -16 16 -22 31 -8 25 -6 31 18 52 32 27 67 32 67 9z m-5028 -46 c48 -56 46
-126 -6 -166 -45 -36 -216 -41 -216 -7 0 7 15 15 35 19 19 3 50 7 69 10 50 8
100 45 104 78 4 31 0 33 -33 11 -31 -20 -126 -30 -153 -15 -30 16 -29 56 2 76
30 20 102 35 141 29 18 -2 41 -17 57 -35z m408 15 c24 -61 4 -208 -35 -264
-32 -47 -31 -68 5 -119 58 -80 48 -129 -21 -101 -32 14 -134 109 -156 145 -11
19 -12 19 -12 -6 -1 -38 24 -116 50 -153 26 -38 66 -65 132 -90 26 -10 46 -23
44 -30 -19 -57 -215 64 -252 156 -22 57 -31 201 -16 266 25 102 87 169 192
206 58 20 58 20 69 -10z m260 8 c19 -9 41 -29 50 -44 22 -41 3 -53 -78 -52
-86 1 -118 9 -125 33 -8 30 4 70 22 74 38 11 99 6 131 -11z m874 2 c23 -22 21
-81 -3 -94 -50 -26 -101 -1 -101 50 0 36 24 60 60 60 16 0 36 -7 44 -16z m207
6 c14 -8 19 -21 19 -50 0 -48 -18 -60 -88 -60 -71 0 -98 26 -93 92 0 9 9 19
19 21 34 9 124 7 143 -3z m-1268 -68 c3 -26 2 -72 -2 -102 l-7 -55 -12 78
c-17 108 -16 153 2 138 7 -6 16 -33 19 -59z m-2084 21 c6 -21 11 -73 11 -117
l0 -78 -41 -38 c-50 -45 -49 -64 7 -128 49 -58 42 -76 -31 -70 -60 5 -134 45
-168 90 -26 35 -32 111 -13 173 l15 50 -35 -39 c-35 -41 -64 -117 -64 -170 0
-77 42 -151 101 -182 34 -17 38 -50 9 -59 -65 -21 -170 152 -170 281 0 142
126 298 224 280 24 -5 40 -1 57 12 56 44 85 42 98 -5z m1288 18 c34 -9 45 -54
16 -66 -10 -4 -251 -11 -536 -15 -285 -4 -519 -9 -522 -11 -2 -2 0 -20 4 -39
l7 -35 191 -5 c106 -3 195 -9 200 -13 12 -13 -18 -26 -77 -33 -56 -7 -359 2
-384 12 -16 6 -34 193 -20 215 5 9 126 10 550 5 298 -4 555 -11 571 -15z
m-1162 -88 c0 -81 -3 -95 -22 -114 -13 -14 -28 -19 -38 -15 -15 5 -17 19 -13
100 4 101 16 129 52 124 20 -3 21 -9 21 -95z m5310 68 c0 -28 -30 -42 -62 -30
-22 8 -31 38 -16 53 4 4 23 6 43 4 29 -3 35 -7 35 -27z m1275 17 c0 -19 -31
-48 -52 -48 -24 0 -23 15 2 40 22 22 50 27 50 8z m100 -69 c14 -26 8 -43 -24
-65 -24 -15 -28 -15 -51 0 -27 18 -33 54 -13 74 20 20 76 15 88 -9z m-1290
-20 c0 -7 -22 -34 -50 -61 l-49 -50 -28 20 c-50 36 -109 94 -88 86 77 -27 92
-28 141 -6 56 24 74 27 74 11z m-605 -81 c-3 -40 -9 -76 -11 -80 -3 -4 -330
-8 -727 -8 -565 0 -727 3 -747 13 -52 26 -62 107 -17 122 29 10 531 21 1076
23 l434 2 -8 -72z m290 50 c77 -19 157 -69 195 -120 l22 -30 -191 3 c-157 3
-194 7 -201 19 -6 8 -9 42 -8 75 3 54 5 60 28 66 28 8 94 2 155 -13z m544 15
c20 -5 23 -10 18 -43 -3 -21 -11 -51 -18 -66 -12 -25 -21 -30 -69 -36 -90 -10
-210 -9 -210 2 0 14 88 108 115 123 39 21 122 32 164 20z m191 -17 c19 -8 26
-20 28 -46 5 -57 -16 -74 -87 -75 -71 0 -81 8 -81 72 0 69 55 88 140 49z m710
-18 c0 -19 -16 -56 -40 -95 -45 -70 -45 -95 0 -63 33 24 40 25 40 6 0 -8 -12
-24 -26 -35 -28 -22 -64 -28 -64 -11 0 6 -20 10 -45 10 -35 0 -47 4 -56 22
-10 19 -8 25 20 47 17 14 31 31 31 36 0 20 52 87 82 105 39 23 58 16 58 -22z
m-3547 13 c48 -19 45 -93 -5 -110 -44 -16 -147 -13 -204 4 -73 22 -92 20 -100
-12 -4 -14 -2 -33 3 -42 15 -25 124 -59 226 -72 97 -12 122 -23 97 -40 -18
-12 -218 -4 -272 11 -40 12 -74 50 -88 101 -17 59 31 127 107 154 43 16 200
20 236 6z m-783 -20 c0 -32 -27 -44 -100 -45 -104 -1 -109 21 -10 48 79 21
110 20 110 -3z m1018 7 c7 -7 12 -29 12 -50 0 -33 -4 -40 -27 -49 -34 -13 -96
-6 -128 15 -28 19 -44 74 -24 87 21 13 153 11 167 -3z m-2023 -25 c32 -18 0
-24 -178 -35 -222 -14 -224 -14 -247 7 -27 24 -25 33 8 39 49 8 398 -1 417
-11z m381 -183 l7 -105 -46 51 c-29 31 -63 57 -90 68 -54 20 -79 62 -51 83 10
7 25 13 33 13 9 1 41 14 71 29 l55 29 7 -31 c4 -18 10 -79 14 -137z m-849 133
c18 -12 21 -18 11 -24 -25 -16 -138 -6 -138 12 0 15 55 39 79 33 12 -3 34 -12
48 -21z m5568 -2 c8 -14 -30 -32 -51 -24 -16 6 -16 7 2 20 21 15 40 17 49 4z
m-5876 -41 c135 -12 191 -44 119 -69 -47 -17 -607 -27 -636 -12 -24 13 -30 55
-9 68 6 4 93 10 192 13 99 4 191 7 205 8 14 1 72 -3 129 -8z m915 -3 c30 -22
17 -59 -23 -70 -19 -4 -151 -7 -292 -5 -224 3 -261 5 -275 20 -15 15 -15 17 7
32 37 24 137 33 360 35 155 1 210 -2 223 -12z m-663 -38 c16 -8 18 -13 8 -25
-6 -8 -20 -14 -31 -14 -23 0 -36 29 -17 41 18 11 17 11 40 -2z m5612 -25 c-3
-14 -34 -17 -45 -6 -6 6 -8 18 -4 27 6 16 9 16 29 2 12 -8 21 -18 20 -23z
m-163 15 c0 -21 -57 -67 -97 -79 -73 -22 -148 9 -123 50 7 12 75 24 208 39 6
0 12 -4 12 -10z m-7340 -29 c74 -5 230 -17 346 -25 117 -8 222 -19 235 -24 46
-17 -68 -24 -276 -18 -234 8 -333 19 -432 48 -74 22 -101 46 -40 36 17 -4 93
-11 167 -17z m6830 -18 l25 -10 -30 -8 c-38 -11 -640 -12 -679 -1 -85 24 69
36 404 32 140 -2 266 -8 280 -13z m199 12 c74 -15 3 -53 -76 -41 -49 8 -63 24
-32 36 29 12 65 13 108 5z m362 -10 c10 -13 10 -17 -2 -25 -22 -14 -49 -11
-56 7 -11 30 36 45 58 18z m-1472 -10 c155 -12 43 -25 -315 -35 -395 -12
-1072 -8 -1094 6 -34 21 70 28 515 34 488 6 767 5 894 -5z m-1479 -14 c26 -18
-9 -30 -85 -30 -76 0 -111 12 -85 30 8 5 47 10 85 10 39 0 77 -5 85 -10z
m-3210 -36 c11 -28 13 -146 4 -181 -8 -27 -36 -38 -64 -23 -18 10 -20 20 -20
108 0 104 7 122 47 122 16 0 27 -8 33 -26z m459 16 c69 -12 169 -56 155 -70
-8 -7 -422 -30 -542 -30 -41 0 -42 1 -42 33 0 35 15 61 40 70 27 10 324 7 389
-3z m229 -7 c2 -7 -9 -18 -24 -23 -21 -8 -32 -7 -51 5 -13 9 -21 20 -17 26 8
14 87 7 92 -8z m486 7 c32 -12 36 -54 6 -70 -12 -7 -100 -9 -241 -8 l-221 3
45 32 c25 18 62 37 84 42 52 12 296 13 327 1z m271 -3 c32 -10 42 -20 53 -49
18 -46 9 -99 -21 -133 -18 -20 -37 -27 -99 -35 -92 -13 -171 1 -147 25 8 8 51
18 97 24 82 9 132 30 132 55 0 20 -16 24 -124 32 -78 5 -99 10 -106 25 -14 25
-12 35 6 53 19 20 148 21 209 3z m738 -6 c30 -12 46 -49 26 -62 -8 -5 -58 -9
-112 -9 -92 0 -98 1 -106 23 -9 24 -4 47 13 60 13 10 144 1 179 -12z m240 5
c12 -32 17 -104 10 -146 -8 -41 -11 -45 -41 -48 -27 -3 -34 1 -42 23 -13 34
-13 126 0 159 7 20 17 26 39 26 16 0 31 -6 34 -14z m3874 -3 c2 -6 -8 -19 -22
-29 -24 -16 -28 -16 -42 -1 -25 24 -9 49 29 45 17 -2 33 -8 35 -15z m-4342
-98 c0 -46 -3 -87 -8 -91 -17 -18 -31 20 -31 88 -1 85 8 118 27 99 7 -7 12
-43 12 -96z m2129 39 c9 -3 16 -12 16 -20 0 -7 9 -18 21 -24 24 -13 66 -2 106
30 31 25 68 27 59 4 -3 -9 -6 -17 -6 -19 0 -2 -21 -20 -46 -40 -65 -49 -97
-47 -168 11 -31 25 -56 49 -56 55 0 10 50 12 74 3z m2086 -9 c0 -8 -22 -29
-49 -45 -44 -28 -81 -77 -81 -109 0 -6 -4 -11 -10 -11 -16 0 -12 48 7 87 28
60 133 121 133 78z m-492 -7 c7 -7 12 -26 12 -43 0 -51 -41 -73 -74 -39 -23
22 -20 60 6 78 27 19 40 20 56 4z m169 -18 c55 -24 71 -53 41 -74 -36 -25
-120 -15 -140 17 -12 18 -9 62 4 75 13 13 30 10 95 -18z m-309 4 c31 -9 30
-50 -2 -58 -50 -12 -330 -27 -781 -40 -258 -8 -471 -13 -472 -12 -5 5 98 77
125 87 15 6 72 15 127 19 122 9 971 12 1003 4z m-3915 -47 c21 -41 12 -71 -24
-82 -36 -12 -44 8 -30 70 14 64 27 67 54 12z m1397 13 c21 -15 30 -29 28 -44
-3 -19 -10 -21 -66 -24 -70 -3 -92 7 -92 43 0 48 10 58 56 52 23 -2 56 -14 74
-27z m208 4 c14 -10 22 -25 22 -45 0 -29 0 -29 -57 -29 -32 0 -68 3 -81 6 -26
8 -39 48 -22 69 17 20 109 20 138 -1z m732 -6 c19 -9 51 -28 70 -42 l35 -27
-378 3 c-398 3 -402 4 -394 48 6 37 42 41 342 38 241 -3 296 -6 325 -20z
m-1746 -25 c-12 -51 -27 -58 -124 -58 -83 0 -112 6 -97 22 4 3 44 9 89 13 92
8 114 15 122 36 9 25 17 15 10 -13z m-2349 -25 c30 -14 33 -34 5 -43 -25 -8
-70 19 -70 40 0 18 29 19 65 3z m1278 -4 c45 -11 31 -22 -40 -30 -90 -11 -909
-11 -998 0 -111 13 -51 25 179 35 217 10 814 6 859 -5z m1151 -120 c1 -89 -12
-132 -35 -118 -13 7 -11 161 2 208 10 36 12 38 22 20 6 -10 11 -60 11 -110z
m3886 113 c0 -16 -66 -54 -76 -44 -11 11 4 37 28 47 33 13 48 12 48 -3z
m-4460 -11 c0 -8 -5 -18 -11 -22 -14 -8 -33 11 -25 25 10 16 36 13 36 -3z m54
-118 c-4 -40 -7 -148 -6 -240 l0 -168 -189 0 -189 0 1 138 c0 194 5 212 53
229 26 8 43 10 49 4 6 -6 13 -76 17 -156 4 -87 11 -150 18 -157 18 -18 28 24
36 142 15 239 32 255 38 36 4 -158 11 -186 47 -186 39 1 44 15 52 157 6 111
11 146 28 178 12 21 21 49 21 60 0 23 8 35 23 35 5 0 6 -29 1 -72z m130 5 c-2
-59 -18 -93 -44 -93 -39 0 -56 93 -22 122 47 41 67 32 66 -29z m153 30 c14
-19 20 -58 30 -218 l7 -120 7 160 c6 163 18 227 33 189 5 -10 12 -101 15 -202
8 -190 11 -201 52 -202 28 0 38 23 47 106 l9 79 16 -37 c11 -25 17 -64 17
-119 l0 -81 -149 3 c-105 3 -153 8 -164 18 -27 22 -32 79 -12 157 17 70 17 72
-4 135 -21 62 -28 139 -14 153 12 11 97 -5 110 -21z m-357 -13 c0 -12 -33 -30
-54 -30 -22 0 -20 37 1 49 19 10 53 -2 53 -19z m728 18 c7 -7 12 -34 12 -60
l0 -48 -38 0 c-44 0 -62 14 -62 50 0 54 55 91 88 58z m-2754 -50 c8 -13 7 -21
-2 -30 -17 -17 -46 1 -50 31 -3 18 1 22 19 19 12 -2 27 -11 33 -20z m2773
-124 c9 -24 -20 -46 -71 -51 -42 -5 -46 -4 -46 15 0 40 103 72 117 36z m-533
0 c44 -17 -18 -80 -69 -70 -39 8 -58 32 -44 57 7 14 21 19 54 19 24 0 50 -3
59 -6z m-393 -315 l21 -21 21 20 20 21 17 -22 c22 -26 81 -28 108 -4 26 24 40
21 54 -8 9 -21 9 -29 -5 -42 -14 -14 -42 -17 -175 -17 -171 -1 -192 4 -192 50
0 29 24 43 73 44 25 0 44 -7 58 -21z m550 0 l21 -21 15 21 14 22 31 -26 c38
-32 63 -32 93 1 29 31 45 24 45 -21 0 -45 -16 -49 -171 -48 -153 1 -171 5
-167 41 6 49 81 69 119 31z m507 -9 c23 -16 44 -30 47 -30 3 0 5 11 5 24 0 37
18 41 45 12 30 -33 59 -33 89 -1 13 14 30 25 38 25 36 0 52 -56 21 -81 -20
-18 -278 -18 -310 0 -27 14 -38 48 -23 66 19 22 43 18 88 -15z m-943 -150 c9
-14 -12 -48 -35 -55 -43 -14 -84 22 -59 51 13 16 85 19 94 4z m545 -11 c0 -24
-26 -48 -51 -49 -27 0 -63 35 -56 53 5 13 19 17 57 17 44 0 50 -2 50 -21z
m536 7 c14 -36 -41 -85 -75 -67 -20 11 -44 65 -34 75 13 13 104 6 109 -8z"/>
<path d="M12408 4285 c-2 -3 -103 -30 -224 -60 -219 -55 -418 -114 -410 -123
6 -6 215 25 326 49 231 49 354 89 370 120 10 17 7 19 -23 19 -19 0 -36 -2 -39
-5z"/>
<path d="M768 3803 c-31 -19 -40 -36 -32 -57 14 -37 68 -24 85 21 19 51 -4 66
-53 36z"/>
<path d="M5067 2944 c-2 -15 -1 -38 3 -53 7 -21 8 -16 9 27 1 56 -4 67 -12 26z"/>
</g>
</svg>
